<svg xmlns="http://www.w3.org/2000/svg" viewBox="0 0 43.9 43.9"><defs><style>.cls-1{fill:none;stroke:#242352;stroke-miterlimit:10;}.cls-2{fill:#242352;}</style></defs><title>Asset 2</title><g id="Layer_2" data-name="Layer 2"><g id="Layer_1-2" data-name="Layer 1"><circle class="cls-1" cx="21.95" cy="21.95" r="21.45"/><path class="cls-2" d="M33.14,18.09A14.06,14.06,0,0,1,11.5,30.58a9.94,9.94,0,0,0,7.32-2A5,5,0,0,1,14.2,25.1,5,5,0,0,0,16.44,25a5,5,0,0,1-4-4.91,4.93,4.93,0,0,0,2.24.62,5,5,0,0,1-1.53-6.6,14,14,0,0,0,10.19,5.17,4.95,4.95,0,0,1,8.43-4.51,9.91,9.91,0,0,0,3.14-1.2,5,5,0,0,1-2.17,2.74,9.88,9.88,0,0,0,2.84-.78A10,10,0,0,1,33.14,18.09Z"/></g></g></svg>