<svg xmlns="http://www.w3.org/2000/svg" viewBox="0 0 43.9 43.9"><defs><style>.cls-1{fill:none;stroke:#242352;stroke-miterlimit:10;}.cls-2{fill:#242352;}</style></defs><title>Asset 3</title><g id="Layer_2" data-name="Layer 2"><g id="Layer_1-2" data-name="Layer 1"><circle class="cls-1" cx="21.95" cy="21.95" r="21.45"/><g id="Lozenge"><path class="cls-2" d="M33.71,17.15a5.19,5.19,0,0,0-1-2.38,3.43,3.43,0,0,0-2.4-1c-3.36-.24-8.4-.24-8.4-.24h0s-5,0-8.4.24a3.43,3.43,0,0,0-2.4,1,5.19,5.19,0,0,0-1,2.38A36.3,36.3,0,0,0,10,21v1.82a36.3,36.3,0,0,0,.24,3.88,5.19,5.19,0,0,0,1,2.38,4.07,4.07,0,0,0,2.65,1c1.92.18,8.16.24,8.16.24s5,0,8.4-.25a3.43,3.43,0,0,0,2.4-1,5.19,5.19,0,0,0,1-2.38A36.35,36.35,0,0,0,34,22.86V21A36.35,36.35,0,0,0,33.71,17.15ZM19.47,25.07V18.32L26,21.71Z"/></g></g></g></svg>